<mxfile host="app.diagrams.net" modified="2022-10-29T14:58:48.256Z" agent="5.0 (X11)" etag="nbJ4I5sB5lhhojErhpLH" version="20.5.1" type="github">
  <diagram name="Page-1" id="c37626ed-c26b-45fb-9056-f9ebc6bb27b6">
    <mxGraphModel dx="1738" dy="1227" grid="1" gridSize="10" guides="1" tooltips="1" connect="1" arrows="1" fold="1" page="1" pageScale="1" pageWidth="1100" pageHeight="850" background="none" math="0" shadow="0">
      <root>
        <mxCell id="0" />
        <mxCell id="1" parent="0" />
        <mxCell id="vzz5hQNBR1GMGZ0krCKi-1" value="" style="edgeStyle=orthogonalEdgeStyle;rounded=0;orthogonalLoop=1;jettySize=auto;html=1;fontSize=16;" edge="1" parent="1" source="1c7a67bf8fd3230f-1" target="1c7a67bf8fd3230f-6">
          <mxGeometry relative="1" as="geometry" />
        </mxCell>
        <mxCell id="vzz5hQNBR1GMGZ0krCKi-51" style="edgeStyle=orthogonalEdgeStyle;rounded=0;orthogonalLoop=1;jettySize=auto;html=1;exitX=0.95;exitY=0.96;exitDx=0;exitDy=0;exitPerimeter=0;entryX=0.07;entryY=0.04;entryDx=0;entryDy=0;entryPerimeter=0;fontSize=16;" edge="1" parent="1" source="1c7a67bf8fd3230f-1" target="1c7a67bf8fd3230f-5">
          <mxGeometry relative="1" as="geometry" />
        </mxCell>
        <mxCell id="1c7a67bf8fd3230f-1" value="USER" style="shape=mxgraph.cisco.misc.route_switch_processor;html=1;dashed=0;fillColor=#036897;strokeColor=#ffffff;strokeWidth=2;verticalLabelPosition=bottom;verticalAlign=top;rounded=0;shadow=0;comic=0;fontFamily=Verdana;fontSize=12;" parent="1" vertex="1">
          <mxGeometry x="710" y="306" width="64" height="86" as="geometry" />
        </mxCell>
        <mxCell id="vzz5hQNBR1GMGZ0krCKi-50" style="edgeStyle=orthogonalEdgeStyle;rounded=0;orthogonalLoop=1;jettySize=auto;html=1;exitX=0.95;exitY=0.96;exitDx=0;exitDy=0;exitPerimeter=0;entryX=0.5;entryY=0;entryDx=0;entryDy=0;entryPerimeter=0;fontSize=16;" edge="1" parent="1" source="1c7a67bf8fd3230f-2" target="1c7a67bf8fd3230f-5">
          <mxGeometry relative="1" as="geometry" />
        </mxCell>
        <mxCell id="1c7a67bf8fd3230f-2" value="USER" style="shape=mxgraph.cisco.misc.route_switch_processor;html=1;dashed=0;fillColor=#036897;strokeColor=#ffffff;strokeWidth=2;verticalLabelPosition=bottom;verticalAlign=top;rounded=0;shadow=0;comic=0;fontFamily=Verdana;fontSize=12;" parent="1" vertex="1">
          <mxGeometry x="908" y="306" width="64" height="86" as="geometry" />
        </mxCell>
        <mxCell id="vzz5hQNBR1GMGZ0krCKi-49" style="edgeStyle=orthogonalEdgeStyle;rounded=0;orthogonalLoop=1;jettySize=auto;html=1;exitX=0;exitY=1;exitDx=0;exitDy=0;exitPerimeter=0;entryX=1;entryY=0;entryDx=0;entryDy=0;entryPerimeter=0;fontSize=16;" edge="1" parent="1" source="1c7a67bf8fd3230f-3" target="1c7a67bf8fd3230f-5">
          <mxGeometry relative="1" as="geometry" />
        </mxCell>
        <mxCell id="1c7a67bf8fd3230f-3" value="USER" style="shape=mxgraph.cisco.misc.route_switch_processor;html=1;dashed=0;fillColor=#036897;strokeColor=#ffffff;strokeWidth=2;verticalLabelPosition=bottom;verticalAlign=top;rounded=0;shadow=0;comic=0;fontFamily=Verdana;fontSize=12;" parent="1" vertex="1">
          <mxGeometry x="1110" y="306" width="64" height="86" as="geometry" />
        </mxCell>
        <mxCell id="vzz5hQNBR1GMGZ0krCKi-48" style="edgeStyle=orthogonalEdgeStyle;rounded=0;orthogonalLoop=1;jettySize=auto;html=1;exitX=0;exitY=1;exitDx=0;exitDy=0;exitPerimeter=0;entryX=1;entryY=0;entryDx=0;entryDy=0;entryPerimeter=0;fontSize=16;" edge="1" parent="1" source="1c7a67bf8fd3230f-4" target="1c7a67bf8fd3230f-5">
          <mxGeometry relative="1" as="geometry" />
        </mxCell>
        <mxCell id="1c7a67bf8fd3230f-4" value="USER" style="shape=mxgraph.cisco.misc.route_switch_processor;html=1;dashed=0;fillColor=#036897;strokeColor=#ffffff;strokeWidth=2;verticalLabelPosition=bottom;verticalAlign=top;rounded=0;shadow=0;comic=0;fontFamily=Verdana;fontSize=12;" parent="1" vertex="1">
          <mxGeometry x="1340" y="306" width="64" height="86" as="geometry" />
        </mxCell>
        <mxCell id="vzz5hQNBR1GMGZ0krCKi-43" style="edgeStyle=orthogonalEdgeStyle;rounded=0;orthogonalLoop=1;jettySize=auto;html=1;exitX=0;exitY=1;exitDx=0;exitDy=0;exitPerimeter=0;entryX=0.5;entryY=0;entryDx=0;entryDy=0;entryPerimeter=0;fontSize=16;" edge="1" parent="1" source="1c7a67bf8fd3230f-5" target="1c7a67bf8fd3230f-46">
          <mxGeometry relative="1" as="geometry" />
        </mxCell>
        <mxCell id="1c7a67bf8fd3230f-5" value="&lt;font style=&quot;font-size: 16px;&quot;&gt;&lt;b&gt;GitHub&lt;/b&gt;&lt;/font&gt;" style="shape=mxgraph.cisco.misc.route_switch_processor;html=1;dashed=0;fillColor=#036897;strokeColor=#ffffff;strokeWidth=2;verticalLabelPosition=bottom;verticalAlign=top;rounded=0;shadow=0;comic=0;fontFamily=Verdana;fontSize=12;" parent="1" vertex="1">
          <mxGeometry x="1020" y="476" width="64" height="86" as="geometry" />
        </mxCell>
        <mxCell id="vzz5hQNBR1GMGZ0krCKi-44" style="edgeStyle=orthogonalEdgeStyle;rounded=0;orthogonalLoop=1;jettySize=auto;html=1;exitX=1;exitY=0.5;exitDx=0;exitDy=0;exitPerimeter=0;entryX=0;entryY=0.5;entryDx=0;entryDy=0;entryPerimeter=0;fontSize=16;" edge="1" parent="1" source="1c7a67bf8fd3230f-6" target="1c7a67bf8fd3230f-5">
          <mxGeometry relative="1" as="geometry" />
        </mxCell>
        <mxCell id="1c7a67bf8fd3230f-6" value="" style="shape=mxgraph.cisco.switches.content_switch;html=1;dashed=0;fillColor=#036897;strokeColor=#ffffff;strokeWidth=2;verticalLabelPosition=bottom;verticalAlign=top;rounded=0;shadow=0;comic=0;fontFamily=Verdana;fontSize=12;" parent="1" vertex="1">
          <mxGeometry x="710" y="476" width="64" height="86" as="geometry" />
        </mxCell>
        <mxCell id="vzz5hQNBR1GMGZ0krCKi-47" style="edgeStyle=orthogonalEdgeStyle;rounded=0;orthogonalLoop=1;jettySize=auto;html=1;exitX=0;exitY=0.5;exitDx=0;exitDy=0;exitPerimeter=0;entryX=1;entryY=0.5;entryDx=0;entryDy=0;entryPerimeter=0;fontSize=16;" edge="1" parent="1" source="1c7a67bf8fd3230f-7" target="1c7a67bf8fd3230f-5">
          <mxGeometry relative="1" as="geometry" />
        </mxCell>
        <mxCell id="1c7a67bf8fd3230f-7" value="" style="shape=mxgraph.cisco.switches.content_switch;html=1;dashed=0;fillColor=#036897;strokeColor=#ffffff;strokeWidth=2;verticalLabelPosition=bottom;verticalAlign=top;rounded=0;shadow=0;comic=0;fontFamily=Verdana;fontSize=12;" parent="1" vertex="1">
          <mxGeometry x="1240" y="476" width="64" height="86" as="geometry" />
        </mxCell>
        <mxCell id="vzz5hQNBR1GMGZ0krCKi-45" style="edgeStyle=orthogonalEdgeStyle;rounded=0;orthogonalLoop=1;jettySize=auto;html=1;exitX=1;exitY=0;exitDx=0;exitDy=0;exitPerimeter=0;entryX=0;entryY=0.5;entryDx=0;entryDy=0;entryPerimeter=0;fontSize=16;" edge="1" parent="1" source="1c7a67bf8fd3230f-8" target="1c7a67bf8fd3230f-6">
          <mxGeometry relative="1" as="geometry" />
        </mxCell>
        <mxCell id="1c7a67bf8fd3230f-8" value="" style="shape=mxgraph.cisco.storage.cisco_file_engine;html=1;dashed=0;fillColor=#036897;strokeColor=#ffffff;strokeWidth=2;verticalLabelPosition=bottom;verticalAlign=top;rounded=0;shadow=0;comic=0;fontFamily=Verdana;fontSize=12;" parent="1" vertex="1">
          <mxGeometry x="500" y="572" width="90" height="64" as="geometry" />
        </mxCell>
        <mxCell id="vzz5hQNBR1GMGZ0krCKi-46" style="edgeStyle=orthogonalEdgeStyle;rounded=0;orthogonalLoop=1;jettySize=auto;html=1;exitX=1;exitY=0.5;exitDx=0;exitDy=0;exitPerimeter=0;entryX=0;entryY=0.5;entryDx=0;entryDy=0;entryPerimeter=0;fontSize=16;" edge="1" parent="1" source="1c7a67bf8fd3230f-9" target="1c7a67bf8fd3230f-6">
          <mxGeometry relative="1" as="geometry" />
        </mxCell>
        <mxCell id="1c7a67bf8fd3230f-9" value="" style="shape=mxgraph.cisco.misc.me1100;html=1;dashed=0;fillColor=#036897;strokeColor=#ffffff;strokeWidth=2;verticalLabelPosition=bottom;verticalAlign=top;rounded=0;shadow=0;comic=0;fontFamily=Verdana;fontSize=12;" parent="1" vertex="1">
          <mxGeometry x="500" y="471" width="91" height="48" as="geometry" />
        </mxCell>
        <mxCell id="1c7a67bf8fd3230f-13" value="Multiple Networks" style="ellipse;shape=cloud;whiteSpace=wrap;html=1;rounded=0;shadow=0;comic=0;strokeWidth=1;fontFamily=Verdana;fontSize=12;rotation=15;" parent="1" vertex="1">
          <mxGeometry x="971" y="689" width="203" height="80" as="geometry" />
        </mxCell>
        <mxCell id="1c7a67bf8fd3230f-19" value="" style="shape=mxgraph.cisco.misc.me1100;html=1;dashed=0;fillColor=#036897;strokeColor=#ffffff;strokeWidth=2;verticalLabelPosition=bottom;verticalAlign=top;rounded=0;shadow=0;comic=0;fontFamily=Verdana;fontSize=12;" parent="1" vertex="1">
          <mxGeometry x="610" y="878" width="91" height="48" as="geometry" />
        </mxCell>
        <mxCell id="vzz5hQNBR1GMGZ0krCKi-52" style="edgeStyle=orthogonalEdgeStyle;rounded=0;orthogonalLoop=1;jettySize=auto;html=1;exitX=0.5;exitY=1;exitDx=0;exitDy=0;exitPerimeter=0;entryX=0.5;entryY=0;entryDx=0;entryDy=0;entryPerimeter=0;fontSize=16;" edge="1" parent="1" source="1c7a67bf8fd3230f-46" target="vzz5hQNBR1GMGZ0krCKi-21">
          <mxGeometry relative="1" as="geometry" />
        </mxCell>
        <mxCell id="1c7a67bf8fd3230f-46" value="" style="shape=mxgraph.cisco.routers.router;html=1;dashed=0;fillColor=#036897;strokeColor=#ffffff;strokeWidth=2;verticalLabelPosition=bottom;verticalAlign=top;rounded=0;shadow=0;comic=0;fontFamily=Verdana;fontSize=12;" parent="1" vertex="1">
          <mxGeometry x="908" y="650" width="78" height="53" as="geometry" />
        </mxCell>
        <mxCell id="vzz5hQNBR1GMGZ0krCKi-2" value="USER PRESETS/SETUPS" style="text;html=1;resizable=0;autosize=1;align=center;verticalAlign=middle;points=[];fillColor=none;strokeColor=none;rounded=0;fontSize=16;" vertex="1" parent="1">
          <mxGeometry x="632" y="572" width="210" height="30" as="geometry" />
        </mxCell>
        <mxCell id="vzz5hQNBR1GMGZ0krCKi-3" value="&lt;div&gt;FRONTEND Servers&lt;/div&gt;&lt;div&gt;Widgets/External Services&lt;br&gt;&lt;/div&gt;" style="text;html=1;resizable=0;autosize=1;align=center;verticalAlign=middle;points=[];fillColor=none;strokeColor=none;rounded=0;fontSize=16;" vertex="1" parent="1">
          <mxGeometry x="1167" y="562" width="210" height="50" as="geometry" />
        </mxCell>
        <mxCell id="vzz5hQNBR1GMGZ0krCKi-5" value="&lt;div&gt;Private Networks Filter&lt;/div&gt;&lt;div&gt;Authentication Layer&lt;br&gt;&lt;/div&gt;" style="text;html=1;resizable=0;autosize=1;align=center;verticalAlign=middle;points=[];fillColor=none;strokeColor=none;rounded=0;fontSize=16;" vertex="1" parent="1">
          <mxGeometry x="728" y="653" width="180" height="50" as="geometry" />
        </mxCell>
        <mxCell id="vzz5hQNBR1GMGZ0krCKi-9" value="" style="shape=mxgraph.cisco.misc.route_switch_processor;html=1;dashed=0;fillColor=#036897;strokeColor=#ffffff;strokeWidth=2;verticalLabelPosition=bottom;verticalAlign=top;rounded=0;shadow=0;comic=0;fontFamily=Verdana;fontSize=12;" vertex="1" parent="1">
          <mxGeometry x="2425" y="1766" width="64" height="86" as="geometry" />
        </mxCell>
        <mxCell id="vzz5hQNBR1GMGZ0krCKi-14" value="Garlinet" style="text;html=1;resizable=0;autosize=1;align=center;verticalAlign=middle;points=[];fillColor=none;strokeColor=none;rounded=0;fontSize=16;" vertex="1" parent="1">
          <mxGeometry x="760" y="760" width="80" height="30" as="geometry" />
        </mxCell>
        <mxCell id="vzz5hQNBR1GMGZ0krCKi-30" style="edgeStyle=orthogonalEdgeStyle;rounded=0;orthogonalLoop=1;jettySize=auto;html=1;exitX=0.12;exitY=0.1;exitDx=0;exitDy=0;exitPerimeter=0;fontSize=16;" edge="1" parent="1" source="vzz5hQNBR1GMGZ0krCKi-21" target="vzz5hQNBR1GMGZ0krCKi-14">
          <mxGeometry relative="1" as="geometry" />
        </mxCell>
        <mxCell id="vzz5hQNBR1GMGZ0krCKi-36" style="edgeStyle=orthogonalEdgeStyle;rounded=0;orthogonalLoop=1;jettySize=auto;html=1;exitX=1;exitY=0.5;exitDx=0;exitDy=0;exitPerimeter=0;fontSize=16;" edge="1" parent="1" source="vzz5hQNBR1GMGZ0krCKi-21" target="vzz5hQNBR1GMGZ0krCKi-25">
          <mxGeometry relative="1" as="geometry" />
        </mxCell>
        <mxCell id="vzz5hQNBR1GMGZ0krCKi-37" style="edgeStyle=orthogonalEdgeStyle;rounded=0;orthogonalLoop=1;jettySize=auto;html=1;exitX=0.88;exitY=0.1;exitDx=0;exitDy=0;exitPerimeter=0;fontSize=16;" edge="1" parent="1" source="vzz5hQNBR1GMGZ0krCKi-21" target="vzz5hQNBR1GMGZ0krCKi-28">
          <mxGeometry relative="1" as="geometry" />
        </mxCell>
        <mxCell id="vzz5hQNBR1GMGZ0krCKi-38" style="edgeStyle=orthogonalEdgeStyle;rounded=0;orthogonalLoop=1;jettySize=auto;html=1;exitX=0;exitY=0.5;exitDx=0;exitDy=0;exitPerimeter=0;fontSize=16;" edge="1" parent="1" source="vzz5hQNBR1GMGZ0krCKi-21" target="vzz5hQNBR1GMGZ0krCKi-27">
          <mxGeometry relative="1" as="geometry" />
        </mxCell>
        <mxCell id="vzz5hQNBR1GMGZ0krCKi-41" style="edgeStyle=orthogonalEdgeStyle;rounded=0;orthogonalLoop=1;jettySize=auto;html=1;exitX=0.12;exitY=0.9;exitDx=0;exitDy=0;exitPerimeter=0;entryX=1.01;entryY=0.667;entryDx=0;entryDy=0;entryPerimeter=0;fontSize=16;" edge="1" parent="1" source="vzz5hQNBR1GMGZ0krCKi-21">
          <mxGeometry relative="1" as="geometry">
            <mxPoint x="840.8" y="817.0099999999998" as="targetPoint" />
          </mxGeometry>
        </mxCell>
        <mxCell id="vzz5hQNBR1GMGZ0krCKi-53" style="edgeStyle=orthogonalEdgeStyle;rounded=0;orthogonalLoop=1;jettySize=auto;html=1;exitX=0.5;exitY=1;exitDx=0;exitDy=0;exitPerimeter=0;entryX=0.5;entryY=0;entryDx=0;entryDy=0;entryPerimeter=0;fontSize=16;" edge="1" parent="1" source="vzz5hQNBR1GMGZ0krCKi-21" target="1c7a67bf8fd3230f-19">
          <mxGeometry relative="1" as="geometry" />
        </mxCell>
        <mxCell id="vzz5hQNBR1GMGZ0krCKi-59" style="edgeStyle=orthogonalEdgeStyle;rounded=0;orthogonalLoop=1;jettySize=auto;html=1;exitX=0.5;exitY=1;exitDx=0;exitDy=0;exitPerimeter=0;entryX=0.5;entryY=0;entryDx=0;entryDy=0;entryPerimeter=0;fontSize=16;" edge="1" parent="1" source="vzz5hQNBR1GMGZ0krCKi-21" target="vzz5hQNBR1GMGZ0krCKi-56">
          <mxGeometry relative="1" as="geometry" />
        </mxCell>
        <mxCell id="vzz5hQNBR1GMGZ0krCKi-63" style="edgeStyle=orthogonalEdgeStyle;rounded=0;orthogonalLoop=1;jettySize=auto;html=1;exitX=0.5;exitY=1;exitDx=0;exitDy=0;exitPerimeter=0;entryX=0.5;entryY=0;entryDx=0;entryDy=0;entryPerimeter=0;fontSize=13;" edge="1" parent="1" source="vzz5hQNBR1GMGZ0krCKi-21" target="vzz5hQNBR1GMGZ0krCKi-60">
          <mxGeometry relative="1" as="geometry" />
        </mxCell>
        <mxCell id="vzz5hQNBR1GMGZ0krCKi-21" value="" style="shape=mxgraph.cisco.routers.router;html=1;dashed=0;fillColor=#036897;strokeColor=#ffffff;strokeWidth=2;verticalLabelPosition=bottom;verticalAlign=top;rounded=0;shadow=0;comic=0;fontFamily=Verdana;fontSize=12;" vertex="1" parent="1">
          <mxGeometry x="903" y="769" width="81" height="53" as="geometry" />
        </mxCell>
        <mxCell id="vzz5hQNBR1GMGZ0krCKi-25" value="i2p" style="text;html=1;resizable=0;autosize=1;align=center;verticalAlign=middle;points=[];fillColor=none;strokeColor=none;rounded=0;fontSize=16;" vertex="1" parent="1">
          <mxGeometry x="1012" y="780" width="40" height="30" as="geometry" />
        </mxCell>
        <mxCell id="vzz5hQNBR1GMGZ0krCKi-26" value="ZeroNet" style="text;html=1;resizable=0;autosize=1;align=center;verticalAlign=middle;points=[];fillColor=none;strokeColor=none;rounded=0;fontSize=16;" vertex="1" parent="1">
          <mxGeometry x="762" y="800" width="80" height="30" as="geometry" />
        </mxCell>
        <mxCell id="vzz5hQNBR1GMGZ0krCKi-27" value="&lt;div&gt;FreeNet&lt;/div&gt;" style="text;html=1;resizable=0;autosize=1;align=center;verticalAlign=middle;points=[];fillColor=none;strokeColor=none;rounded=0;fontSize=16;" vertex="1" parent="1">
          <mxGeometry x="760" y="780.5" width="80" height="30" as="geometry" />
        </mxCell>
        <mxCell id="vzz5hQNBR1GMGZ0krCKi-28" value="Onion" style="text;html=1;resizable=0;autosize=1;align=center;verticalAlign=middle;points=[];fillColor=none;strokeColor=none;rounded=0;fontSize=16;" vertex="1" parent="1">
          <mxGeometry x="998" y="760" width="70" height="30" as="geometry" />
        </mxCell>
        <mxCell id="vzz5hQNBR1GMGZ0krCKi-54" value="Robots / Fundamentalist Contents / Data sharing" style="text;html=1;resizable=0;autosize=1;align=center;verticalAlign=middle;points=[];fillColor=none;strokeColor=none;rounded=0;fontSize=13;fontStyle=1" vertex="1" parent="1">
          <mxGeometry x="485" y="950" width="320" height="30" as="geometry" />
        </mxCell>
        <mxCell id="vzz5hQNBR1GMGZ0krCKi-58" style="edgeStyle=orthogonalEdgeStyle;rounded=0;orthogonalLoop=1;jettySize=auto;html=1;exitX=1;exitY=0.5;exitDx=0;exitDy=0;exitPerimeter=0;fontSize=16;" edge="1" parent="1" source="vzz5hQNBR1GMGZ0krCKi-56" target="vzz5hQNBR1GMGZ0krCKi-57">
          <mxGeometry relative="1" as="geometry" />
        </mxCell>
        <mxCell id="vzz5hQNBR1GMGZ0krCKi-56" value="" style="shape=mxgraph.cisco.misc.me1100;html=1;dashed=0;fillColor=#036897;strokeColor=#ffffff;strokeWidth=2;verticalLabelPosition=bottom;verticalAlign=top;rounded=0;shadow=0;comic=0;fontFamily=Verdana;fontSize=12;" vertex="1" parent="1">
          <mxGeometry x="1076" y="878" width="91" height="48" as="geometry" />
        </mxCell>
        <mxCell id="vzz5hQNBR1GMGZ0krCKi-57" value="Private Nodes/Sub Nodes/Docker." style="text;html=1;resizable=0;autosize=1;align=center;verticalAlign=middle;points=[];fillColor=none;strokeColor=none;rounded=0;fontSize=16;" vertex="1" parent="1">
          <mxGeometry x="1200" y="887" width="270" height="30" as="geometry" />
        </mxCell>
        <mxCell id="vzz5hQNBR1GMGZ0krCKi-62" style="edgeStyle=orthogonalEdgeStyle;rounded=0;orthogonalLoop=1;jettySize=auto;html=1;exitX=0.5;exitY=1;exitDx=0;exitDy=0;exitPerimeter=0;fontSize=13;" edge="1" parent="1" source="vzz5hQNBR1GMGZ0krCKi-60" target="vzz5hQNBR1GMGZ0krCKi-61">
          <mxGeometry relative="1" as="geometry" />
        </mxCell>
        <mxCell id="vzz5hQNBR1GMGZ0krCKi-60" value="" style="shape=mxgraph.cisco.misc.route_switch_processor;html=1;dashed=0;fillColor=#036897;strokeColor=#ffffff;strokeWidth=2;verticalLabelPosition=bottom;verticalAlign=top;rounded=0;shadow=0;comic=0;fontFamily=Verdana;fontSize=12;" vertex="1" parent="1">
          <mxGeometry x="905.62" y="878" width="75.75" height="92" as="geometry" />
        </mxCell>
        <mxCell id="vzz5hQNBR1GMGZ0krCKi-61" value="Localhost Services" style="text;html=1;resizable=0;autosize=1;align=center;verticalAlign=middle;points=[];fillColor=none;strokeColor=none;rounded=0;fontSize=13;fontStyle=1" vertex="1" parent="1">
          <mxGeometry x="873.5" y="1010" width="140" height="30" as="geometry" />
        </mxCell>
      </root>
    </mxGraphModel>
  </diagram>
</mxfile>
